<svg id="Layer_1" data-name="Layer 1" xmlns="http://www.w3.org/2000/svg" viewBox="0 0 1200 600"><defs><style>.cls-1{fill:#888;}.cls-2{fill:#fff;}</style></defs><title>Artboard 1</title><rect class="cls-1" x="706.02" y="107.34" width="109.79" height="109.79" rx="12"/><rect class="cls-1" x="1081.02" y="107.34" width="109.79" height="109.79" rx="12"/><rect class="cls-1" x="1081.02" y="482.34" width="109.79" height="109.79" rx="12"/><rect class="cls-1" x="706.02" y="482.34" width="109.79" height="109.79" rx="12"/><rect class="cls-1" x="831.02" y="107.34" width="109.79" height="109.79" rx="12"/><rect class="cls-1" x="956.02" y="107.34" width="109.79" height="109.79" rx="12"/><rect class="cls-1" x="706.02" y="232.34" width="109.79" height="109.79" rx="12"/><rect class="cls-1" x="831.02" y="232.34" width="109.79" height="109.79" rx="12"/><rect class="cls-1" x="956.02" y="232.34" width="109.79" height="109.79" rx="12"/><rect class="cls-1" x="1081.02" y="232.34" width="109.79" height="109.79" rx="12"/><rect class="cls-1" x="706.02" y="357.34" width="109.79" height="109.79" rx="12"/><rect class="cls-1" x="831.02" y="357.34" width="109.79" height="109.79" rx="12"/><rect class="cls-1" x="956.02" y="357.34" width="109.79" height="109.79" rx="12"/><rect class="cls-1" x="1081.02" y="357.34" width="109.79" height="109.79" rx="12"/><rect class="cls-1" x="831.02" y="482.34" width="109.79" height="109.79" rx="12"/><rect class="cls-1" x="956.02" y="482.34" width="109.79" height="109.79" rx="12"/><path class="cls-1" d="M771.71,31.91h4.08l3.68,11.19,1.28,4.24h.16l1.24-4.24,3.72-11.19H790V58.14h-3.2V45c0-2.56.4-7,.56-9.28h-.12l-1.48,5.12L782,51.18h-2.4l-3.68-10.32-1.52-5.12h-.08c.24,2.24.56,6.72.56,9.28V58.14h-3.12Z"/><path class="cls-1" d="M796,53.1c0-4.36,4.08-6.48,14.12-7.28-.12-2.64-1.4-4.88-5.16-4.88a13.54,13.54,0,0,0-6.8,2.32L796.87,41a17,17,0,0,1,8.68-2.8c5.32,0,7.92,3.16,7.92,8V58.14h-2.76l-.28-2.64h-.12a13.07,13.07,0,0,1-7.64,3.12C799,58.62,796,56.58,796,53.1Zm14.12,0V48c-8.32.64-10.84,2.28-10.84,4.84,0,2.2,2,3.08,4.24,3.08S807.91,54.9,810.15,53.06Z"/><path class="cls-1" d="M820.55,38.7h2.72l.28,2.48h.12a10.32,10.32,0,0,1,6.72-3c5.24,0,8,3.88,8,9.92,0,6.6-4.16,10.48-8.84,10.48a9.22,9.22,0,0,1-5.8-2.52h-.08l.16,3.68v6.56h-3.32ZM835,48.14c0-4.28-1.6-7.12-5.48-7.12-1.72,0-3.72.88-5.68,2.88v9.68A8.12,8.12,0,0,0,829,55.82C832.47,55.82,835,52.94,835,48.14Z"/><path class="cls-1" d="M844.55,38.7h2.72l.28,2.48h.12a10.32,10.32,0,0,1,6.72-3c5.24,0,8,3.88,8,9.92,0,6.6-4.16,10.48-8.84,10.48a9.22,9.22,0,0,1-5.8-2.52h-.08l.16,3.68v6.56h-3.32ZM859,48.14c0-4.28-1.6-7.12-5.48-7.12-1.72,0-3.72.88-5.68,2.88v9.68A8.12,8.12,0,0,0,853,55.82C856.47,55.82,859,52.94,859,48.14Z"/><path class="cls-1" d="M867.55,48.38a9.77,9.77,0,0,1,9.92-10.16c5.6,0,8.88,3.64,8.88,9.12a13.49,13.49,0,0,1-.16,2H869.75V46.78h14.48l-.84.92c0-4.6-2.28-6.88-5.84-6.88s-6.72,2.72-6.72,7.56c0,5,3.28,7.6,7.6,7.6a10.59,10.59,0,0,0,5.92-1.84l1.2,2.16A13.32,13.32,0,0,1,878,58.62C872.19,58.62,867.55,54.86,867.55,48.38Z"/><path class="cls-1" d="M891.23,48.46c0-6.32,4.2-10.24,8.8-10.24a8.35,8.35,0,0,1,5.84,2.48H906l-.16-3.56V29.67h3.32V58.14h-2.72l-.28-2.56H906a9.34,9.34,0,0,1-6.36,3C894.59,58.62,891.23,54.94,891.23,48.46Zm14.56,4.48V43.26A7.21,7.21,0,0,0,900.71,41c-3.36,0-6.08,3-6.08,7.4,0,4.64,2.16,7.4,5.72,7.4C902.27,55.82,904.07,54.86,905.79,52.94Z"/><path class="cls-1" d="M940.71,31.91h3.4V45h.12l11-13.11h3.84l-15,17.87v8.36h-3.4Zm7.44,11.59,2-2.64L960,58.14h-3.8Z"/><path class="cls-1" d="M963.55,48.38a9.77,9.77,0,0,1,9.92-10.16c5.6,0,8.88,3.64,8.88,9.12a13.49,13.49,0,0,1-.16,2H965.75V46.78h14.48l-.84.92c0-4.6-2.28-6.88-5.84-6.88s-6.72,2.72-6.72,7.56c0,5,3.28,7.6,7.6,7.6a10.59,10.59,0,0,0,5.92-1.84l1.2,2.16A13.32,13.32,0,0,1,974,58.62C968.19,58.62,963.55,54.86,963.55,48.38Z"/><path class="cls-1" d="M987.51,66.1l.68-2.64a6.24,6.24,0,0,0,1.76.28c2.72,0,4.36-1.72,5.32-4.12l.56-1.44-9-19.48h3.36l4.72,10.72c.76,1.72,1.6,3.76,2.4,5.64h.16c.68-1.84,1.44-3.88,2.08-5.64l4.2-10.72h3.2l-8.6,21c-1.44,3.84-3.8,6.76-8.24,6.76A8.19,8.19,0,0,1,987.51,66.1Z"/><path class="cls-1" d="M1015.63,56h-.12l-.32,2.16h-2.64V29.67h3.32v7.75l-.16,3.76h.12a9.56,9.56,0,0,1,6.52-3c5.24,0,8.08,3.88,8.08,9.88,0,6.64-4.16,10.52-8.76,10.52A9.6,9.6,0,0,1,1015.63,56Zm11.4-7.84c0-4.28-1.6-7.12-5.48-7.12-1.72,0-3.72.88-5.68,2.88v9.68a8.13,8.13,0,0,0,5.24,2.24C1024.47,55.82,1027,52.94,1027,48.14Z"/><path class="cls-1" d="M1035.23,48.46c0-6.52,4.48-10.24,9.6-10.24s9.6,3.72,9.6,10.24-4.48,10.16-9.6,10.16S1035.23,54.9,1035.23,48.46Zm15.8,0c0-4.48-2.48-7.48-6.2-7.48s-6.2,3-6.2,7.48,2.48,7.4,6.2,7.4S1051,52.9,1051,48.46Z"/><path class="cls-1" d="M1060,53.1c0-4.36,4.08-6.48,14.12-7.28-.12-2.64-1.4-4.88-5.16-4.88a13.54,13.54,0,0,0-6.8,2.32L1060.87,41a17,17,0,0,1,8.68-2.8c5.32,0,7.92,3.16,7.92,8V58.14h-2.76l-.28-2.64h-.12a13.07,13.07,0,0,1-7.64,3.12C1063,58.62,1060,56.58,1060,53.1Zm14.12,0V48c-8.32.64-10.84,2.28-10.84,4.84,0,2.2,2,3.08,4.24,3.08S1071.91,54.9,1074.15,53.06Z"/><path class="cls-1" d="M1086.63,38.7h2.76l.32,4.6h.08a10.25,10.25,0,0,1,8.68-5.08,8.18,8.18,0,0,1,3.84.8l-.76,2.84a9.75,9.75,0,0,0-3.6-.64c-2.92,0-5.68,1.48-8,5.56V58.14h-3.32Z"/><path class="cls-1" d="M1107.23,48.46c0-6.32,4.2-10.24,8.8-10.24a8.35,8.35,0,0,1,5.84,2.48h.08l-.16-3.56V29.67h3.32V58.14h-2.72l-.28-2.56H1122a9.34,9.34,0,0,1-6.36,3C1110.59,58.62,1107.23,54.94,1107.23,48.46Zm14.56,4.48V43.26a7.21,7.21,0,0,0-5.08-2.24c-3.36,0-6.08,3-6.08,7.4,0,4.64,2.16,7.4,5.72,7.4C1118.27,55.82,1120.07,54.86,1121.79,52.94Z"/><path class="cls-2" d="M739.26,187.24h18.4V140.43h-14.3V135c7.5-1,12.3-2.5,16.4-4.7H766v56.91h16.6v6.9h-43.3Z"/><path class="cls-2" d="M864.15,189.84c21.6-19.1,33.4-30.31,33.4-40.91,0-7.3-4.4-12.4-13.8-12.4-6,0-11.2,3.4-15.3,7.6l-4.8-4.7c5.8-5.8,12.1-9.7,21.1-9.7,12.8,0,20.8,7.5,20.8,18.8,0,12-12,23.91-29.3,39.61,4-.3,8.1-.5,11.9-.5h20.9v7.1h-44.9Z"/><path class="cls-2" d="M989.5,187.54l4.2-5.4a25.81,25.81,0,0,0,18.3,7.5c8.7,0,15.2-4.5,15.2-11.6,0-7.6-6.4-12.71-23.1-12.71V159c15.1,0,20.9-5.2,20.9-11.9,0-6.1-5.3-10-13-10a24.1,24.1,0,0,0-15.7,6.4l-4.4-5.2a30.93,30.93,0,0,1,20.4-8c12,0,21.1,5.9,21.1,16.2,0,7.7-5.7,12.6-13.6,15.2v.4c8.5,1.81,15.8,7.41,15.8,16.21,0,11.3-10.4,18.2-23.1,18.2C1001.5,196.54,994.2,192.24,989.5,187.54Z"/><path class="cls-2" d="M1143.51,151.43c.1-3.5.3-7.8.5-11.3h-.5c-2.1,3.1-4.4,6.2-6.5,9.3L1119.81,171h41.4v6.7h-50.6v-5.5l31.8-40.71h8.9v63.81h-7.8Z"/><path class="cls-2" d="M735.56,279.38c0-21.2,10.4-33.7,25.2-33.7s25.2,12.5,25.2,33.7c0,21.51-10.4,34.31-25.2,34.31S735.56,300.89,735.56,279.38Zm41.7,0c0-16.5-6.6-26.3-16.5-26.3s-16.5,9.8-16.5,26.3c0,17.41,6.6,27.31,16.5,27.31S777.26,296.79,777.26,279.38Zm-20.9,33.21,8.8-.7c1.9,6.5,7.4,9.7,14.7,9.7a13.39,13.39,0,0,0,4.9-.9l1.5,6.7a20.32,20.32,0,0,1-7.4,1.4C767,328.79,759.56,321.79,756.36,312.59Z"/><path class="cls-2" d="M857.35,254.38h9.4l4.8,41.21c.6,5.5,1,8.7,1.3,15.2h.3c1.2-6.5,1.9-9.7,3.2-15.1l6.4-24.41h8l6.2,24.41c1.4,5.4,2,8.6,3.2,15.1h.4c.4-6.5.6-9.7,1.2-15.1l4.6-41.31h9l-9.6,65.71h-10.4l-6.4-26.4c-1-4-1.8-7.81-2.4-11.81h-.3c-.7,4-1.3,7.81-2.3,11.81l-6.4,26.4h-10.2Z"/><path class="cls-2" d="M990.11,254.43h40.6v7.1h-32.2V282h27.2v7.1h-27.2v23.81h33.2V320h-41.6Z"/><path class="cls-2" d="M1113.21,254.43h20.5c13.3,0,23,4.8,23,18.5,0,13.1-9.7,19.41-23,19.41h-12V320h-8.5Zm19.3,31.1c10.2,0,15.8-4.2,15.8-12.6,0-8.6-5.6-11.7-15.8-11.7h-10.8v24.3Zm6.1.1,20,34.41h-9.5L1132,290Z"/><path class="cls-2" d="M756.11,379.43h9.6L787.81,445h-9l-11.3-36.61c-2.3-7.3-4.5-14.5-6.5-22.1h-.4c-2.1,7.6-4.2,14.8-6.5,22.1L742.61,445H734Zm-10.4,38.91h30.1v6.8h-30.1Z"/><path class="cls-2" d="M862.05,435.34l5-5.8a27.59,27.59,0,0,0,19.2,8.1c9,0,14.2-4.3,14.2-10.3,0-7-5.1-9-11.7-11.81l-9.5-4.2c-6.5-2.6-14.1-7.2-14.1-16.9,0-10,9-17.4,21.5-17.4a28.61,28.61,0,0,1,20.2,8.1l-4.4,5.4a23.05,23.05,0,0,0-16.1-6.1c-7.6,0-12.7,3.6-12.7,9.5,0,6.3,6.1,8.6,11.7,10.8l9.2,4.1c8.1,3.2,14.5,7.8,14.5,17.51,0,10.4-8.8,18.7-23.2,18.7A33.35,33.35,0,0,1,862.05,435.34Z"/><path class="cls-2" d="M987.61,379.43h16.2c19.7,0,30.4,11.7,30.4,32.51s-10.7,33.1-30,33.1h-16.6Zm15.6,58.71c14.9,0,22.3-9.6,22.3-26.2s-7.4-25.61-22.3-25.61H996v51.81Z"/><path class="cls-2" d="M1115.76,379.43h40.3v7.1h-31.9v22.1h27v7.11h-27V445h-8.4Z"/><path class="cls-2" d="M737.21,565l36.5-53.51h-33.3v-7.1h43.7v5.1L747.51,563h37.1v7.1h-47.4Z"/><path class="cls-2" d="M881.25,536.13,863,504.43h9.3l9.2,16.7c1.7,3,3.2,5.7,5.3,9.6h.4c1.8-3.9,3.1-6.6,4.7-9.6l9-16.7h8.9l-18.3,32.1L911.05,570h-9.4l-9.8-17.6c-1.8-3.3-3.6-6.6-5.8-10.6h-.4c-1.9,4-3.6,7.3-5.3,10.6l-9.8,17.6h-8.9Z"/><path class="cls-2" d="M986.31,538.44c0-21.11,12.3-34,29.4-34a24.58,24.58,0,0,1,18,8l-4.8,5.3a17.59,17.59,0,0,0-13.2-5.9c-12.5,0-20.7,10.1-20.7,26.4,0,16.51,8.2,26.81,20.7,26.81,6,0,10.6-2.6,14.7-7.2l4.8,5.1a25.35,25.35,0,0,1-20.3,9.5C998.71,572.44,986.31,559.84,986.31,538.44Z"/><path class="cls-2" d="M1109.16,505.63h9l10.5,35.41c2.3,7.7,3.9,14,6.3,21.6h.4c2.4-7.6,4.1-13.9,6.3-21.6l10.5-35.41h8.6L1140,571.24h-9.8Z"/><rect class="cls-1" x="9.2" y="105.16" width="109.79" height="109.79" rx="12"/><rect class="cls-1" x="384.2" y="105.16" width="109.79" height="109.79" rx="12"/><rect class="cls-1" x="384.2" y="480.16" width="109.79" height="109.79" rx="12"/><rect class="cls-1" x="9.2" y="480.16" width="109.79" height="109.79" rx="12"/><rect class="cls-1" x="134.2" y="105.16" width="109.79" height="109.79" rx="12"/><rect class="cls-1" x="259.2" y="105.16" width="109.79" height="109.79" rx="12"/><rect class="cls-1" x="9.2" y="230.16" width="109.79" height="109.79" rx="12"/><rect class="cls-1" x="134.2" y="230.16" width="109.79" height="109.79" rx="12"/><rect class="cls-1" x="259.2" y="230.16" width="109.79" height="109.79" rx="12"/><rect class="cls-1" x="384.2" y="230.16" width="109.79" height="109.79" rx="12"/><rect class="cls-1" x="9.2" y="355.16" width="109.79" height="109.79" rx="12"/><rect class="cls-1" x="134.2" y="355.16" width="109.79" height="109.79" rx="12"/><rect class="cls-1" x="259.2" y="355.16" width="109.79" height="109.79" rx="12"/><rect class="cls-1" x="384.2" y="355.16" width="109.79" height="109.79" rx="12"/><rect class="cls-1" x="134.2" y="480.16" width="109.79" height="109.79" rx="12"/><rect class="cls-1" x="259.2" y="480.16" width="109.79" height="109.79" rx="12"/><path class="cls-2" d="M42.44,185.06h18.4v-46.8H46.54v-5.41c7.5-1,12.3-2.5,16.4-4.7h6.2v56.91h16.6V192H42.44Z"/><path class="cls-2" d="M166.89,187.66c21.6-19.1,33.4-30.3,33.4-40.9,0-7.3-4.4-12.41-13.8-12.41-6,0-11.2,3.41-15.3,7.61l-4.8-4.7c5.8-5.81,12.1-9.71,21.1-9.71,12.8,0,20.8,7.5,20.8,18.81,0,12-12,23.9-29.3,39.6,4-.3,8.1-.5,11.9-.5h20.9v7.1h-44.9Z"/><path class="cls-2" d="M291,184.16l4.2-5.4a25.81,25.81,0,0,0,18.3,7.5c8.7,0,15.2-4.5,15.2-11.6,0-7.6-6.4-12.7-23.1-12.7v-6.3c15.1,0,20.9-5.2,20.9-11.9,0-6.1-5.3-10-13-10a24.06,24.06,0,0,0-15.7,6.41l-4.4-5.21a30.93,30.93,0,0,1,20.4-8c12,0,21.1,5.9,21.1,16.21,0,7.7-5.7,12.6-13.6,15.2v.4c8.5,1.8,15.8,7.4,15.8,16.2,0,11.3-10.4,18.2-23.1,18.2C303,193.16,295.74,188.86,291,184.16Z"/><path class="cls-2" d="M414.64,160.06c0-21.1,12.3-34,29.4-34a24.58,24.58,0,0,1,18,8l-4.8,5.3a17.59,17.59,0,0,0-13.2-5.9c-12.5,0-20.7,10.11-20.7,26.41,0,16.5,8.2,26.8,20.7,26.8,6,0,10.6-2.6,14.7-7.2l4.8,5.1a25.35,25.35,0,0,1-20.3,9.5C427,194.06,414.64,181.46,414.64,160.06Z"/><path class="cls-2" d="M71.69,273.06c.1-3.5.3-7.8.5-11.31h-.5c-2.1,3.11-4.4,6.21-6.5,9.31L48,292.66h41.4v6.7H38.79v-5.5l31.8-40.71h8.9V317h-7.8Z"/><path class="cls-2" d="M165.79,308.86l4.1-5.5c4.3,3.8,9.5,7.3,18,7.3,8.9,0,16.1-5.6,16.1-14.5s-6.2-13.9-15.6-13.9c-5.3,0-8.5,1.3-13,3.8l-4.4-2.8,2.1-30.71h36.1v7.2h-28.8l-1.7,18.81a27.33,27.33,0,0,1,11.8-2.6c12.2,0,21.9,6.2,21.9,20s-11.4,21.6-23.6,21.6C177.39,317.56,170.69,313.26,165.79,308.86Z"/><path class="cls-2" d="M291.24,287.46c0-25.61,12.8-35.51,26.7-35.51a25.35,25.35,0,0,1,17.8,6.8l-4.6,5.2a18.81,18.81,0,0,0-12.7-5.1c-10.4,0-19.4,7.31-19.4,28.61,0,15.7,6,24.2,16.6,24.2,7.5,0,13.4-5.6,13.4-14,0-8.7-4.7-13.5-13.5-13.5-5.1,0-11.2,2.5-16.7,9l-.3-6.5c5.3-5.3,11.9-8.7,18.5-8.7,11.8,0,19.9,6.6,19.9,19.7,0,12.2-9.9,20.5-21.3,20.5C301.74,318.16,291.24,308,291.24,287.46Z"/><path class="cls-2" d="M416.94,252.25h16.2c19.7,0,30.4,11.71,30.4,32.51s-10.7,33.1-30,33.1h-16.6ZM432.54,311c14.9,0,22.3-9.6,22.3-26.2s-7.4-25.61-22.3-25.61h-7.2V311Z"/><path class="cls-2" d="M77.69,385.35H41v-7.2h46.2v5.1c-16.9,19.31-21,33.71-22,58.71h-8.7C57.59,417.86,63.19,403.16,77.69,385.35Z"/><path class="cls-2" d="M166.39,425.66c0-8.8,6.8-13.8,13.7-17v-.4c-5.3-3.3-9.7-8.2-9.7-14.9,0-9.81,8.3-16.41,19.7-16.41,12.5,0,19.8,7.1,19.8,17,0,6-4.4,11.5-9.7,15.2v.4c7,3.5,12.5,7.5,12.5,16.6,0,9.5-8.3,17-22.9,17C175.39,443.16,166.39,435.76,166.39,425.66Zm38.4.2c0-8.8-8.9-11.1-20-14.8-6.2,3.3-10.9,7.4-10.9,13.8,0,7,6.3,12.1,16.1,12.1C199.39,437,204.79,432.46,204.79,425.86Zm-2.1-31.5c0-6.21-4.5-11.21-12.8-11.21-7,0-11.9,4-11.9,10.21,0,7.6,7.3,10.8,16.8,13.8C200,403.36,202.69,399.06,202.69,394.36Z"/><path class="cls-2" d="M292.44,437.46l4.6-5.2a18.82,18.82,0,0,0,12.7,5c10.3,0,19.4-7.3,19.4-28.6,0-15.71-6.1-24.11-16.6-24.11-7.6,0-13.5,5.5-13.5,13.9,0,8.71,4.8,13.51,13.6,13.51,5,0,11.1-2.5,16.6-9l.3,6.51c-5.2,5.4-11.9,8.7-18.5,8.7-11.8,0-19.8-6.6-19.8-19.71,0-12.2,9.9-20.5,21.2-20.5,13.9,0,24.5,10.2,24.5,30.71,0,25.6-12.9,35.5-26.7,35.5A25.75,25.75,0,0,1,292.44,437.46Z"/><path class="cls-2" d="M419.44,378.25H460v7.1h-32.2v20.51H455V413h-27.2v23.8H461v7.1h-41.6Z"/><path class="cls-2" d="M59.29,502.25h9.6L91,567.86H82l-11.3-36.6c-2.3-7.3-4.5-14.5-6.5-22.1h-.4c-2.1,7.6-4.2,14.8-6.5,22.1l-11.5,36.6h-8.6Zm-10.4,38.91H79V548H48.89Z"/><path class="cls-2" d="M167.44,534.86c0-21.4,8.7-32.91,22.9-32.91s22.9,11.51,22.9,32.91c0,21.2-8.7,33.3-22.9,33.3S167.44,556.06,167.44,534.86Zm38.1,0c0-18.31-6.3-26.21-15.2-26.21s-15.2,7.9-15.2,26.21,6.3,26.6,15.2,26.6S205.54,553.16,205.54,534.86Zm-21.4-.7a6.21,6.21,0,1,1,12.4,0c0,4.2-2.9,6.7-6.2,6.7S184.14,538.36,184.14,534.16Z"/><path class="cls-2" d="M291.69,501.4h18.6c13.4,0,22.5,4.5,22.5,16,0,6.51-3.7,12.31-11.5,14.31v.4c9.6,1.5,15.2,6.7,15.2,15.7,0,12.9-10,19.2-24.7,19.2h-20.1ZM308.89,529c11.2,0,15.7-3.6,15.7-10.91,0-7.1-5.2-9.7-15.3-9.7H300V529Zm1.7,31c11.2,0,17.7-3.7,17.7-12.6,0-8.1-6.2-11.4-17.7-11.4H300v24Z"/><path class="cls-2" d="M420.09,502.25h40.3v7.1h-31.9v22.11h27v7.1h-27v29.3h-8.4Z"/><path class="cls-1" d="M74.75,42.93c0-8.44,4.92-13.6,11.76-13.6a9.83,9.83,0,0,1,7.2,3.2l-1.92,2.12a7,7,0,0,0-5.28-2.36c-5,0-8.28,4-8.28,10.56s3.28,10.71,8.28,10.71a7.56,7.56,0,0,0,5.88-2.88l1.92,2a10.14,10.14,0,0,1-8.12,3.8C79.71,56.52,74.75,51.48,74.75,42.93Z"/><path class="cls-1" d="M99.87,27.57h3.32v7.76l-.2,4.6h.12c2-2.16,4.24-3.8,7.24-3.8,4.6,0,6.72,2.72,6.72,7.83V56h-3.32V44.4c0-3.67-1.28-5.39-4.44-5.39-2.32,0-3.88,1.16-6.12,3.48V56H99.87Z"/><path class="cls-1" d="M132.75,39.29h-9V36.61h12.32V56h-3.32ZM131.43,30a2.64,2.64,0,1,1,2.64,2.56A2.5,2.5,0,0,1,131.43,30Z"/><path class="cls-1" d="M147.87,36.61h2.72l.28,2.48H151a10.32,10.32,0,0,1,6.72-3c5.24,0,8,3.88,8,9.91,0,6.6-4.16,10.48-8.84,10.48a9.22,9.22,0,0,1-5.8-2.52H151l.16,3.68v6.56h-3.32ZM162.35,46c0-4.27-1.6-7.11-5.48-7.11-1.72,0-3.72.88-5.68,2.88v9.67a8.12,8.12,0,0,0,5.16,2.24C159.79,53.72,162.35,50.84,162.35,46Z"/><path class="cls-1" d="M171.55,41.61h17.2v2.48h-17.2Z"/><path class="cls-1" d="M194.87,49.52c0-3.52,2.72-5.52,5.48-6.79v-.16c-2.12-1.32-3.88-3.28-3.88-6,0-3.92,3.32-6.56,7.88-6.56,5,0,7.92,2.84,7.92,6.8,0,2.4-1.76,4.6-3.88,6.08v.16c2.8,1.39,5,3,5,6.63,0,3.8-3.32,6.8-9.16,6.8S194.87,53.56,194.87,49.52Zm15.36.08c0-3.52-3.56-4.43-8-5.91-2.48,1.31-4.36,3-4.36,5.51,0,2.8,2.52,4.84,6.44,4.84C208.07,54,210.23,52.24,210.23,49.6ZM209.39,37c0-2.48-1.8-4.48-5.12-4.48-2.8,0-4.76,1.6-4.76,4.08,0,3,2.92,4.32,6.72,5.52C208.31,40.61,209.39,38.89,209.39,37Z"/><path class="cls-1" d="M244,29.81h3.4V42.93h.12l11-13.12h3.84l-15,17.87V56H244Zm7.44,11.6,2-2.64L263.35,56h-3.8Z"/><path class="cls-1" d="M266.87,46.28a9.77,9.77,0,0,1,9.92-10.15c5.6,0,8.88,3.64,8.88,9.11a13.49,13.49,0,0,1-.16,2H269.07V44.69h14.48l-.84.91c0-4.59-2.28-6.87-5.84-6.87s-6.72,2.72-6.72,7.55c0,5,3.28,7.6,7.6,7.6A10.59,10.59,0,0,0,283.67,52l1.2,2.16a13.32,13.32,0,0,1-7.52,2.32C271.51,56.52,266.87,52.76,266.87,46.28Z"/><path class="cls-1" d="M290.83,64l.68-2.64a6.24,6.24,0,0,0,1.76.28c2.72,0,4.36-1.72,5.32-4.12l.56-1.44-9-19.47h3.36l4.72,10.71c.76,1.72,1.6,3.76,2.4,5.64h.16c.68-1.84,1.44-3.88,2.08-5.64L307,36.61h3.2l-8.6,21c-1.44,3.84-3.8,6.76-8.24,6.76A8.19,8.19,0,0,1,290.83,64Z"/><path class="cls-1" d="M319,53.88h-.12L318.51,56h-2.64V27.57h3.32v7.76L319,39.09h.12a9.56,9.56,0,0,1,6.52-3c5.24,0,8.08,3.88,8.08,9.87,0,6.64-4.16,10.52-8.76,10.52A9.6,9.6,0,0,1,319,53.88ZM330.35,46c0-4.27-1.6-7.11-5.48-7.11-1.72,0-3.72.88-5.68,2.88v9.67a8.13,8.13,0,0,0,5.24,2.24C327.79,53.72,330.35,50.84,330.35,46Z"/><path class="cls-1" d="M338.55,46.36c0-6.51,4.48-10.23,9.6-10.23s9.6,3.72,9.6,10.23-4.48,10.16-9.6,10.16S338.55,52.8,338.55,46.36Zm15.8,0c0-4.47-2.48-7.47-6.2-7.47s-6.2,3-6.2,7.47,2.48,7.4,6.2,7.4S354.35,50.8,354.35,46.36Z"/><path class="cls-1" d="M363.35,51c0-4.36,4.08-6.48,14.12-7.27-.12-2.64-1.4-4.88-5.16-4.88a13.54,13.54,0,0,0-6.8,2.32l-1.32-2.24a17,17,0,0,1,8.68-2.8c5.32,0,7.92,3.16,7.92,8V56H378l-.28-2.64h-.12A13.07,13.07,0,0,1,370,56.52C366.35,56.52,363.35,54.48,363.35,51Zm14.12,0v-5c-8.32.64-10.84,2.28-10.84,4.84,0,2.2,2,3.08,4.24,3.08S375.23,52.8,377.47,51Z"/><path class="cls-1" d="M390,36.61h2.76l.32,4.6h.08a10.25,10.25,0,0,1,8.68-5.08,8.18,8.18,0,0,1,3.84.8l-.76,2.84a9.75,9.75,0,0,0-3.6-.64c-2.92,0-5.68,1.48-8,5.56V56H390Z"/><path class="cls-1" d="M410.55,46.36c0-6.31,4.2-10.23,8.8-10.23a8.35,8.35,0,0,1,5.84,2.48h.08l-.16-3.56V27.57h3.32V56h-2.72l-.28-2.56h-.12a9.34,9.34,0,0,1-6.36,3C413.91,56.52,410.55,52.84,410.55,46.36Zm14.56,4.48V41.17A7.21,7.21,0,0,0,420,38.93c-3.36,0-6.08,3-6.08,7.39,0,4.64,2.16,7.4,5.72,7.4C421.59,53.72,423.39,52.76,425.11,50.84Z"/><polygon class="cls-1" points="681.78 350.34 611.61 290.62 611.61 332.32 518.22 332.32 518.22 368.36 611.61 368.36 611.61 410.06 681.78 350.34"/></svg>