<svg id="Layer_1" data-name="Layer 1" xmlns="http://www.w3.org/2000/svg" viewBox="0 0 4000 1000"><defs><style>.cls-1{fill:#d1dedf;}.cls-2{fill:#96c8e2;}.cls-3{font-size:357.8px;}.cls-3,.cls-8{font-family:LexendDeca-Regular, Lexend Deca;}.cls-4{letter-spacing:-0.02em;}.cls-5{letter-spacing:0em;}.cls-6{letter-spacing:-0.01em;}.cls-7{letter-spacing:0em;}.cls-8{font-size:190.78px;}.cls-9{letter-spacing:-0.01em;}</style></defs><title>Artboard 1</title><path class="cls-1" d="M718.05,288.1,446.65,131.39a73.42,73.42,0,0,0-73.95,0L101.29,288.1A74.36,74.36,0,0,0,64.4,352.27V665.7a74.33,74.33,0,0,0,36.89,64.16L372.7,886.58a73.47,73.47,0,0,0,73.95,0l271.4-156.72A74.34,74.34,0,0,0,755,665.7V352.27A74.57,74.57,0,0,0,718.05,288.1Zm-4.49,358.83A65.21,65.21,0,0,1,681,703.4l-238.85,138a64.8,64.8,0,0,1-65.12,0L138.18,703.24a65,65,0,0,1-32.56-56.47V371a65.19,65.19,0,0,1,32.56-56.46L377,176.62a64.75,64.75,0,0,1,65.12,0L681,314.57A65,65,0,0,1,713.56,371v275.9Z"/><path class="cls-2" d="M491.72,617.9l-114-60.63c-.16-25.83-.16-51.66-.32-77.48L409.59,461c14,8,17.65,10.11,31.6,18.29l.32,49.56a10.94,10.94,0,0,0,5.94,9.79l50.05,27V467.28a11.36,11.36,0,0,0-5.94-9.95l-76.67-41.22a11.55,11.55,0,0,0-10.75,0c-25.67,13.95-51.49,27.91-77.16,42a11.17,11.17,0,0,0-5.93,9.95l.32,116.61a10.91,10.91,0,0,0,5.93,9.79c41.39,22.3,114.05,61.11,114.05,61.11l.32,61.28-32.24,17.64-31.6-17.32-.16-48.76a11.35,11.35,0,0,0-5.93-9.95l-50.69-27.27s0,66.57.16,105.39a10.9,10.9,0,0,0,5.93,9.78c25.67,14,51.33,27.75,77,41.71a11.28,11.28,0,0,0,10.59,0c25.66-13.79,51.49-27.59,77.15-41.38a11.18,11.18,0,0,0,5.94-10c0-36.41-.16-72.82-.16-109.24A10.85,10.85,0,0,0,491.72,617.9Z"/><path class="cls-2" d="M169,548.6V661.85c13.64,7.38,27.11,14.76,40.75,22.14a4.78,4.78,0,0,0,7.05-4.17V599.45C238.92,611.32,260.9,623,283,634.9c6.26-3.69,8-4.81,14.12-8.5.16-51,.16-102,.32-153L174.76,538.82A11.26,11.26,0,0,0,169,548.6Zm78.76-16.52a6.43,6.43,0,0,1,9.47,5.62c-.16,16.84-.16,33.84-.32,50.68-13.32-7-26.47-14.11-39.79-21.17V548.44C227.37,543.15,237.48,537.7,247.74,532.08Z"/><path class="cls-2" d="M211.81,495.19a9.49,9.49,0,0,0,5.13-8.5V426.05a9.68,9.68,0,0,1,5.14-8.5l10.9-5.77.17,72,43.31-23.1a9.49,9.49,0,0,0,5.13-8.5c-.16-54.06-.32-108.28-.32-162.33-14.44,7.7-28.72,15.4-43.15,23.1a9.48,9.48,0,0,0-5.14,8.5V382.1a9.47,9.47,0,0,1-5.13,8.5l-10.58,5.62c0-24.06,0-48.12.16-72.19-14.44,7.7-28.72,15.24-43.15,22.94a9.51,9.51,0,0,0-5.14,8.5L169.3,518C183.26,510.27,197.54,502.73,211.81,495.19Z"/><path class="cls-2" d="M337.41,422.36c0-19.73,0-39.3-.16-59a9.84,9.84,0,0,1,5-8.5c6.26-3.37,12.67-6.9,18.93-10.26v71.06l35.13-18.77a9.49,9.49,0,0,0,5.13-8.5q0-81.57-.16-163.14L301.48,278.8a9.78,9.78,0,0,0-5.13,8.5c-.17,54.38-.33,108.6-.49,163L332,431A9.83,9.83,0,0,0,337.41,422.36Zm5-141.48c6.42-3.36,12.67-6.73,19.09-10.1v43a9.62,9.62,0,0,1-5.29,8.5l-18.77,9.62c0-14.27,0-28.39-.16-42.66A10,10,0,0,1,342.38,280.88Z"/><path class="cls-2" d="M650.2,349.86c-13.63-7.38-27.27-14.6-40.9-22a4.8,4.8,0,0,0-7.06,4.33c0,18.77.16,37.54.16,56.15a4.85,4.85,0,0,1-7.22,4.17L586,387.39l.16-71.86c-13.8-7.38-27.43-14.75-41.22-22.13a4.78,4.78,0,0,0-7.06,4.17q-.24,80.12-.32,160.24c13.79,7.38,27.43,14.76,41.22,22.14a4.78,4.78,0,0,0,7.06-4.17v-56.3a4.73,4.73,0,0,1,7.06-4.17c3.21,1.76,6.57,3.52,9.78,5.29l-.48,71.7c13.64,7.22,27.27,14.44,40.9,21.82a4.81,4.81,0,0,0,7.06-4.34L650,444.5a11.27,11.27,0,0,0-5.77-9.79l-17.17-9.46,23.26-12.51C650.2,384.51,650.2,378.57,650.2,349.86Z"/><path class="cls-2" d="M521.88,393.17c-13.48-7.06-26.79-14.12-40.27-21.33,0,8,.17,16,.17,24.06-6.74-3.53-13.64-7.22-20.38-10.75a6.49,6.49,0,0,1-3.36-5.62l-.17-92.39a4.91,4.91,0,0,1,7.06-4.33c5.62,2.89,11.39,5.77,17,8.82-.16,7.86-.33,15.72-.33,23.74l40.27,21.82V280.88c-32.41-17.16-64.65-34.48-97.05-51.65a4.81,4.81,0,0,0-7.06,4.34c0,53.41.16,106.83.16,160.24,32.25,17.49,64.65,34.81,96.89,52.29a4.78,4.78,0,0,0,7.06-4.17Z"/><path class="cls-2" d="M601.92,518.77V631.05c-8,4.33-16,8.5-24.06,12.83L578,495l-44.27-23.58a8.08,8.08,0,0,0-11.87,7.06q-.24,125.84-.48,251.83C562.3,708.69,603,686.87,644,665.22a11.17,11.17,0,0,0,5.93-10V533.85c-13-6.9-25.82-13.8-38.82-20.7C607.21,510.75,601.92,513.8,601.92,518.77Z"/><path class="cls-2" d="M693.67,304,443.76,159.62a68.11,68.11,0,0,0-68.17,0L125.67,304a68.24,68.24,0,0,0-34,59V651.74a68.22,68.22,0,0,0,34,59L375.59,855.14a68.11,68.11,0,0,0,68.17,0L693.67,710.77a68.21,68.21,0,0,0,34-59V363A68.42,68.42,0,0,0,693.67,304ZM689.5,634.42a59.88,59.88,0,0,1-30,52l-219.92,127a59.83,59.83,0,0,1-60,0L159.68,686.23a59.89,59.89,0,0,1-30-52V380.34a59.87,59.87,0,0,1,30-52l219.92-127a59.87,59.87,0,0,1,60,0L659.51,328.37a59.88,59.88,0,0,1,30,52V634.42Z"/><text class="cls-3" transform="translate(810.6 531.33)">Int<tspan class="cls-4" x="521.31" y="0">r</tspan><tspan x="657.63" y="0">o </tspan><tspan class="cls-5" x="977.86" y="0">t</tspan><tspan x="1113.47" y="0">o Emu</tspan><tspan class="cls-6" x="2199.39" y="0">l</tspan><tspan class="cls-7" x="2285.26" y="0">ation</tspan></text><text class="cls-8" transform="translate(822.18 718.82)">HackPSU <tspan class="cls-9" x="910.96" y="0">F</tspan><tspan x="1022.95" y="0">all 2019</tspan></text></svg>