<svg id="Layer_1" data-name="Layer 1" xmlns="http://www.w3.org/2000/svg" xmlns:xlink="http://www.w3.org/1999/xlink" viewBox="0 0 3000 3500"><defs><style>.cls-1{fill:#c4c4c4;}.cls-2{fill:#fff;}.cls-3{fill:url(#linear-gradient);}.cls-4{fill:url(#linear-gradient-2);}.cls-5{fill:url(#linear-gradient-3);}.cls-6{fill:#609cd8;}.cls-7{fill:url(#linear-gradient-4);}.cls-8{fill:url(#linear-gradient-5);}.cls-9{fill:#b2b2b2;}.cls-10{fill:#e0e0e0;}.cls-11{fill:#2d2d2d;}.cls-12{fill:#ccc;}.cls-13{fill:#686868;}.cls-14{fill:#e0ded1;}.cls-15{fill:#bcb8a0;}.cls-16{fill:#79bc7d;}</style><linearGradient id="linear-gradient" x1="2113.35" y1="3020.03" x2="2333.21" y2="3020.03" gradientUnits="userSpaceOnUse"><stop offset="0" stop-color="#e6e6e6"/><stop offset="0.87" stop-color="#666"/></linearGradient><linearGradient id="linear-gradient-2" x1="1871.02" y1="3020.03" x2="2090.88" y2="3020.03" xlink:href="#linear-gradient"/><linearGradient id="linear-gradient-3" x1="1628.69" y1="3020.03" x2="1848.55" y2="3020.03" xlink:href="#linear-gradient"/><linearGradient id="linear-gradient-4" x1="765.63" y1="3020.03" x2="985.48" y2="3020.03" xlink:href="#linear-gradient"/><linearGradient id="linear-gradient-5" x1="523.3" y1="3020.03" x2="743.15" y2="3020.03" xlink:href="#linear-gradient"/></defs><title>Artboard 1</title><rect class="cls-1" x="484.85" y="2451.81" width="232.85" height="49.11"/><rect class="cls-1" x="2282.3" y="2451.81" width="232.85" height="49.11"/><rect class="cls-2" x="406.62" y="2492.46" width="2186.76" height="658.25"/><rect class="cls-3" x="2113.35" y="2910.11" width="219.85" height="219.85"/><rect class="cls-4" x="1871.02" y="2910.11" width="219.85" height="219.85"/><rect class="cls-5" x="1628.69" y="2910.11" width="219.85" height="219.85"/><rect class="cls-6" x="2355.68" y="2910.11" width="219.85" height="219.85"/><rect class="cls-7" x="765.63" y="2910.11" width="219.85" height="219.85"/><rect class="cls-8" x="523.3" y="2910.11" width="219.85" height="219.85"/><rect class="cls-2" x="525.29" y="2494.44" width="796.65" height="413.68"/><path class="cls-9" d="M1323.94,2910.11H523.3V2492.46h800.64Zm-796.65-4H1320V2496.42H527.29Z"/><rect class="cls-10" x="803.76" y="2574.8" width="239.71" height="267.57"/><rect class="cls-11" x="803.76" y="2632.27" width="239.71" height="99.22"/><rect class="cls-11" x="570.26" y="2648.18" width="706.72" height="53.11"/><rect class="cls-12" x="1043.47" y="2701.28" width="233.51" height="141.09"/><rect class="cls-6" x="1113.25" y="2749.54" width="93.96" height="44.57"/><rect class="cls-13" x="484.85" y="3150.71" width="232.85" height="49.11"/><rect class="cls-13" x="2282.3" y="3150.71" width="232.85" height="49.11"/><path class="cls-2" d="M2540.1,2966.68l-65.56-37.85a17.72,17.72,0,0,0-17.86,0l-65.56,37.85a18,18,0,0,0-8.91,15.5v75.71a18,18,0,0,0,8.91,15.5l65.56,37.85a17.72,17.72,0,0,0,17.86,0l65.56-37.85a18,18,0,0,0,8.91-15.5v-75.71A18,18,0,0,0,2540.1,2966.68Zm-1.09,86.68a15.73,15.73,0,0,1-7.86,13.63l-57.7,33.33a15.68,15.68,0,0,1-15.73,0L2400,3067a15.71,15.71,0,0,1-7.86-13.64v-66.61a15.75,15.75,0,0,1,7.86-13.64l57.69-33.32a15.63,15.63,0,0,1,15.73,0l57.7,33.32a15.71,15.71,0,0,1,7.86,13.64v66.65Z"/><path class="cls-2" d="M2485.43,3046.34l-27.55-14.64c0-6.24,0-12.48-.08-18.72l7.79-4.53c3.37,1.94,4.26,2.44,7.63,4.42l.08,12a2.62,2.62,0,0,0,1.43,2.36l12.09,6.51V3010a2.73,2.73,0,0,0-1.43-2.4l-18.52-10a2.78,2.78,0,0,0-2.6,0c-6.2,3.37-12.44,6.74-18.63,10.15a2.7,2.7,0,0,0-1.44,2.4l.08,28.17a2.65,2.65,0,0,0,1.43,2.37c10,5.38,27.55,14.76,27.55,14.76l.08,14.8-7.79,4.26-7.63-4.18,0-11.78a2.73,2.73,0,0,0-1.43-2.4l-12.25-6.59s0,16.08,0,25.45a2.65,2.65,0,0,0,1.43,2.37c6.2,3.37,12.4,6.7,18.6,10.07a2.7,2.7,0,0,0,2.56,0l18.64-10a2.71,2.71,0,0,0,1.43-2.41c0-8.79,0-17.59,0-26.38A2.63,2.63,0,0,0,2485.43,3046.34Z"/><path class="cls-2" d="M2407.47,3029.6V3057l9.84,5.35a1.16,1.16,0,0,0,1.71-1v-19.41l16,8.56c1.51-.89,1.94-1.16,3.41-2,0-12.32,0-24.65.08-37l-29.64,15.81A2.72,2.72,0,0,0,2407.47,3029.6Zm19-4a1.55,1.55,0,0,1,2.28,1.36c0,4.07,0,8.18-.08,12.24-3.21-1.7-6.39-3.41-9.61-5.11v-4.53C2421.57,3028.29,2424,3027,2426.5,3025.61Z"/><path class="cls-2" d="M2417.82,3016.7a2.3,2.3,0,0,0,1.24-2V3000a2.33,2.33,0,0,1,1.24-2.05l2.63-1.4,0,17.4,10.46-5.58a2.28,2.28,0,0,0,1.24-2q-.06-19.59-.08-39.21l-10.42,5.58a2.29,2.29,0,0,0-1.24,2v14.65a2.28,2.28,0,0,1-1.24,2.05l-2.56,1.36c0-5.82,0-11.63,0-17.44l-10.42,5.54a2.28,2.28,0,0,0-1.24,2l0,39.25C2410.92,3020.34,2414.37,3018.52,2417.82,3016.7Z"/><path class="cls-2" d="M2448.15,2999.11c0-4.76,0-9.49,0-14.26a2.37,2.37,0,0,1,1.2-2l4.57-2.48v17.16l8.48-4.53a2.28,2.28,0,0,0,1.24-2q0-19.71,0-39.41l-24.1,12.94a2.39,2.39,0,0,0-1.23,2.06q-.06,19.7-.12,39.36l8.72-4.65A2.36,2.36,0,0,0,2448.15,2999.11Zm1.21-34.17c1.54-.82,3.06-1.63,4.61-2.44v10.38a2.33,2.33,0,0,1-1.28,2l-4.54,2.33c0-3.45,0-6.86,0-10.31A2.38,2.38,0,0,1,2449.36,2964.94Z"/><path class="cls-2" d="M2523.71,2981.6c-3.3-1.78-6.59-3.53-9.88-5.31a1.16,1.16,0,0,0-1.71,1.05c0,4.53,0,9.06,0,13.56a1.17,1.17,0,0,1-1.74,1l-2.21-1.23,0-17.36-10-5.35a1.15,1.15,0,0,0-1.7,1q-.06,19.35-.08,38.7c3.33,1.79,6.62,3.57,10,5.35a1.15,1.15,0,0,0,1.7-1v-13.6a1.14,1.14,0,0,1,1.71-1l2.36,1.28-.12,17.31c3.3,1.75,6.59,3.49,9.88,5.27a1.16,1.16,0,0,0,1.71-1l0-15.77a2.7,2.7,0,0,0-1.4-2.36l-4.14-2.29,5.62-3C2523.71,2990,2523.71,2988.53,2523.71,2981.6Z"/><path class="cls-2" d="M2492.71,2992.06c-3.25-1.7-6.47-3.41-9.72-5.15,0,1.93,0,3.87,0,5.81l-4.93-2.6a1.56,1.56,0,0,1-.81-1.35l0-22.32a1.19,1.19,0,0,1,1.71-1c1.35.7,2.75,1.4,4.1,2.13,0,1.9-.07,3.8-.07,5.74l9.72,5.27v-13.6c-7.83-4.15-15.61-8.33-23.44-12.48a1.16,1.16,0,0,0-1.7,1.05q0,19.35,0,38.7c7.79,4.23,15.62,8.41,23.41,12.64a1.16,1.16,0,0,0,1.7-1Z"/><path class="cls-2" d="M2512.05,3022.4v27.12c-1.94,1.05-3.88,2.05-5.82,3.1l0-36-10.69-5.69a2,2,0,0,0-2.87,1.7q-.06,30.4-.11,60.83c9.88-5.23,19.72-10.5,29.6-15.73a2.68,2.68,0,0,0,1.43-2.4V3026l-9.38-5A1.49,1.49,0,0,0,2512.05,3022.4Z"/><path class="cls-2" d="M2534.21,2970.52l-60.37-34.87a16.41,16.41,0,0,0-16.46,0L2397,2970.52a16.46,16.46,0,0,0-8.21,14.26v69.74a16.48,16.48,0,0,0,8.21,14.26l60.37,34.87a16.46,16.46,0,0,0,16.46,0l60.37-34.87a16.5,16.5,0,0,0,8.21-14.26v-69.74A16.53,16.53,0,0,0,2534.21,2970.52Zm-1,79.81a14.48,14.48,0,0,1-7.24,12.56l-53.13,30.68a14.43,14.43,0,0,1-14.49,0l-53.12-30.72a14.48,14.48,0,0,1-7.24-12.56V2989a14.46,14.46,0,0,1,7.24-12.55l53.12-30.69a14.43,14.43,0,0,1,14.49,0l53.13,30.69a14.46,14.46,0,0,1,7.24,12.55v61.37Z"/><rect class="cls-2" x="406.62" y="516.13" width="2186.76" height="1943.61"/><circle class="cls-6" cx="799.19" cy="2242.06" r="101.11"/><circle class="cls-6" cx="1113.25" cy="2242.06" r="101.11"/><circle class="cls-6" cx="1427.3" cy="2242.06" r="101.11"/><rect class="cls-12" x="250" y="300.18" width="2500" height="1984.61" rx="50"/><rect class="cls-2" x="250" y="300.18" width="2500" height="1951.27" rx="50"/><rect class="cls-10" x="409.49" y="444.43" width="2181.01" height="1662.76" rx="100"/><rect x="525.9" y="559.95" width="1948.21" height="1431.71" rx="100"/><rect class="cls-14" x="2243.34" y="2284.79" width="179.73" height="126.64" rx="10"/><circle class="cls-15" cx="2333.21" cy="2348.11" r="35.22"/><rect class="cls-16" x="660.92" y="2774.66" width="74.34" height="38.91"/><rect class="cls-16" x="2169" y="2187" width="74.34" height="38.91"/></svg>